# xmcd
#
# Track frame offsets:
#	150
#	15603
#	28082
#	43581
#	55295
#	70475
#	84313
#	96351
#	110504
#	132340
#	146788
#	159773
#	179222
#	195196
#
# Disc length: 2790 seconds
#
# Revision: 0
# Processed by: cddbd v1.5.2PL0 Copyright (c) Steve Scherf et al.
# Submitted via: audiograbber 1.83.01
#
DISCID=c20ae40e
DTITLE=01 - Mr Music Country 2010-06
DYEAR=2010
DGENRE=Country
TTITLE0=K.C. Williams - Honky tonk hilton
TTITLE1=Darrell McCall - You're still mine
TTITLE2=Miss Leslie - The last time I drank
TTITLE3=Jason Petty - I'm so lonesome I could cry
TTITLE4=Kentucky med Jörgen Lind - Nobody loves you when you're free
TTITLE5=Rayburn Anthony - Boom chika boom
TTITLE6=Amber Digby and Justin Trevino - After the fire is gone
TTITLE7=Charley Pride - Have I got some blues for you
TTITLE8=George and Georgette Jones - You and me and time
TTITLE9=David Ball - Hot water pipe
TTITLE10=Barbara Richardson - You already broke my heart
TTITLE11=Joey Allcorn - Honky tonk hell
TTITLE12=Debbie Nunn - Bubbles
TTITLE13=L.M. Stone - The outskirts of town
EXTD=
EXTT0=
EXTT1=
EXTT2=
EXTT3=
EXTT4=
EXTT5=
EXTT6=
EXTT7=
EXTT8=
EXTT9=
EXTT10=
EXTT11=
EXTT12=
EXTT13=
PLAYORDER=
